<mxfile host="app.diagrams.net">
  <diagram name="AWS Capstone Architecture" id="0hYqtReEBBnaTT3gAXdB">
    <mxGraphModel dx="1162" dy="625" grid="1" gridSize="10" guides="1" tooltips="1" connect="1" arrows="1" fold="1" page="1" pageScale="1" pageWidth="827" pageHeight="1169" math="0" shadow="0">
      <root>
        <mxCell id="0"/>
        <mxCell id="1" parent="0"/>
        
        <!-- Titre -->
        <mxCell id="title" value="AWS Capstone Project Architecture" style="text;html=1;strokeColor=none;fillColor=none;align=center;fontSize=18;fontStyle=1;" vertex="1" parent="1">
          <mxGeometry x="300" y="20" width="300" height="30" as="geometry"/>
        </mxCell>

        <!-- VPC -->
        <mxCell id="2" value="VPC" style="shape=swimlane;childLayout=stackLayout;horizontal=1;fontSize=14;" vertex="1" parent="1">
          <mxGeometry x="80" y="80" width="780" height="460" as="geometry"/>
        </mxCell>

        <!-- Public Subnet -->
        <mxCell id="3" value="Public Subnet" style="shape=swimlane;childLayout=stackLayout;horizontal=1;fontSize=12;" vertex="1" parent="2">
          <mxGeometry x="20" y="20" width="350" height="420" as="geometry"/>
        </mxCell>

        <!-- Private Subnet -->
        <mxCell id="4" value="Private Subnet" style="shape=swimlane;childLayout=stackLayout;horizontal=1;fontSize=12;" vertex="1" parent="2">
          <mxGeometry x="400" y="20" width="350" height="420" as="geometry"/>
        </mxCell>

        <!-- EC2 Instance -->
        <mxCell id="5" value="EC2 Instance&#xa;Port 22 inbound" style="shape=mxgraph.aws3.ec2;whiteSpace=wrap;html=1;" vertex="1" parent="3">
          <mxGeometry x="80" y="60" width="100" height="100" as="geometry"/>
        </mxCell>

        <!-- Load Balancer -->
        <mxCell id="6" value="Load Balancer&#xa;Port 80/443" style="shape=mxgraph.aws3.elasticLoadBalancer;whiteSpace=wrap;html=1;" vertex="1" parent="3">
          <mxGeometry x="200" y="200" width="100" height="100" as="geometry"/>
        </mxCell>

        <!-- RDS -->
        <mxCell id="7" value="RDS Database&#xa;Port 3306" style="shape=mxgraph.aws3.rds;whiteSpace=wrap;html=1;" vertex="1" parent="4">
          <mxGeometry x="100" y="200" width="100" height="100" as="geometry"/>
        </mxCell>

        <!-- FlÃ¨ches -->
        <mxCell id="8" style="endArrow=block;html=1;" edge="1" parent="2" source="6" target="5">
          <mxGeometry relative="1" as="geometry"/>
        </mxCell>
        <mxCell id="9" style="endArrow=block;html=1;" edge="1" parent="2" source="5" target="7">
          <mxGeometry relative="1" as="geometry"/>
        </mxCell>
        <mxCell id="10" style="endArrow=block;html=1;" edge="1" parent="2">
          <mxGeometry relative="1" as="geometry">
            <mxPoint x="250" y="80" as="sourcePoint"/>
            <mxPoint x="250" y="200" as="targetPoint"/>
          </mxGeometry>
        </mxCell>
      </root>
    </mxGraphModel>
  </diagram>
</mxfile>
